<svg width="49.000000" height="24.000000" viewBox="0 0 49 24" fill="none" xmlns="http://www.w3.org/2000/svg" xmlns:xlink="http://www.w3.org/1999/xlink">
	<desc>
			Created with Pixso.
	</desc>
	<defs/>
	<path id="Vector" d="M17.9 0L7.57 0C6.8 0 6.04 0.3 5.5 0.84C5.12 1.22 4.89 1.6 4.74 2.06L20.73 2.06C20.34 0.91 19.27 0 17.9 0ZM3.82 19.27L4.97 23.71L6.19 23.71L7.34 19.27L3.82 19.27ZM22.49 12.85C22.41 12.62 22.41 12.39 22.41 12.16C22.41 12.01 22.33 11.85 22.33 11.78C22.33 11.55 22.33 11.32 22.26 11.01L22.26 10.71C22.26 9.94 22.33 9.1 22.49 8.41L22.49 8.26C22.56 8.03 22.56 7.87 22.64 7.65C22.64 7.57 22.72 7.42 22.72 7.34C23.1 6.04 23.71 4.81 24.55 3.82L2.37 3.82C1.3 3.82 0 4.66 0 5.81L0 15.6C0 16.75 1.3 17.67 2.37 17.67L24.55 17.67C23.56 16.37 22.79 14.84 22.49 13.08L22.49 12.85ZM16.98 15.07L4.81 15.07C4.36 15.07 3.97 14.68 3.97 14.22C3.97 13.77 4.36 13.38 4.81 13.38L16.98 13.38C17.44 13.38 17.82 13.77 17.82 14.22C17.82 14.68 17.44 15.07 16.98 15.07ZM16.98 11.55L4.81 11.55C4.36 11.55 3.97 11.16 3.97 10.71C3.97 10.25 4.36 9.86 4.81 9.86L16.98 9.86C17.44 9.86 17.82 10.25 17.82 10.71C17.82 11.16 17.44 11.55 16.98 11.55ZM16.98 7.95L4.81 7.95C4.36 7.95 3.97 7.57 3.97 7.11C3.97 6.65 4.36 6.27 4.81 6.27L16.98 6.27C17.44 6.27 17.82 6.65 17.82 7.11C17.82 7.57 17.44 7.95 16.98 7.95ZM42.91 9.79L42.91 9.71C42.91 9.41 42.84 9.18 42.76 8.87L42.76 8.79C42.38 6.8 41.31 5.12 39.93 3.74L39.78 3.59C39.7 3.59 39.7 3.51 39.7 3.51C38.02 2.06 35.8 1.14 33.43 1.14C31.06 1.14 28.84 2.06 27.15 3.51L27.08 3.59C27 3.59 27 3.67 26.92 3.67C25.55 4.97 24.48 6.73 24.09 8.64C23.94 9.33 23.86 9.94 23.86 10.63C23.86 10.94 23.86 11.32 23.94 11.62C23.94 11.85 24.02 12.01 24.02 12.24C24.02 12.31 24.02 12.47 24.09 12.54C25.01 16.9 28.84 20.12 33.43 20.12C38.71 20.12 42.99 15.83 42.99 10.55C42.91 10.4 42.91 10.09 42.91 9.79ZM33.43 17.97C29.45 17.97 26.16 14.68 26.16 10.71C26.16 6.73 29.45 3.44 33.43 3.44C37.41 3.44 40.7 6.73 40.7 10.71C40.7 14.68 37.41 17.97 33.43 17.97ZM33.43 5.04C30.29 5.04 27.77 7.57 27.77 10.71C27.77 13.84 30.29 16.37 33.43 16.37C36.56 16.37 39.09 13.84 39.09 10.71C39.01 7.57 36.49 5.04 33.43 5.04ZM42.76 19.27L43.6 23.71L44.75 23.71L45.67 19.27L42.76 19.27ZM47.35 3.74L42.23 3.74C43.22 4.97 43.99 6.5 44.29 8.26L44.29 8.64C44.37 8.95 44.37 9.25 44.44 9.56L44.44 9.71C44.44 10.02 44.52 10.4 44.52 10.71C44.52 13.31 43.68 15.83 42.15 17.67L47.2 17.67C48.35 17.67 48.88 16.67 48.88 15.6L48.88 5.81C49.03 4.81 48.58 3.74 47.35 3.74Z" fill="#BBBBBB" fill-opacity="1.000000" fill-rule="nonzero"/>
</svg>
