<svg width="24.000000" height="24.000000" viewBox="0 0 24 24" fill="none" xmlns="http://www.w3.org/2000/svg" xmlns:xlink="http://www.w3.org/1999/xlink">
	<desc>
			Created with Pixso.
	</desc>
	<defs/>
	<path id="Vector" d="M18.47 13.58C18.46 13.57 18.46 13.56 18.45 13.55C18.52 13.34 18.57 13.11 18.61 12.88L20.45 15.65C20.49 15.7 20.53 15.74 20.58 15.77C20.63 15.8 20.69 15.81 20.75 15.81C20.81 15.81 20.87 15.79 20.93 15.76C20.98 15.73 21.03 15.68 21.06 15.62C21.09 15.57 21.1 15.5 21.1 15.44C21.1 15.38 21.08 15.32 21.04 15.26L18.8 11.9C18.78 11.87 18.76 11.85 18.74 11.83C18.77 11.47 18.78 11.13 18.78 10.84C18.78 10.82 18.77 10.81 18.77 10.8L22.68 15.64C22.71 15.68 22.75 15.71 22.8 15.73C22.85 15.76 22.9 15.77 22.95 15.77C23.02 15.77 23.08 15.75 23.14 15.71C23.2 15.68 23.24 15.63 23.27 15.57C23.3 15.51 23.31 15.44 23.3 15.37C23.29 15.31 23.27 15.24 23.23 15.19L18.69 9.57C18.68 9.56 18.67 9.55 18.66 9.53C18.48 8.58 18.13 7.78 17.77 7.04C17.54 6.55 17.29 5.76 17.29 5.18C17.29 4.65 17.38 4.24 17.63 3.62C17.65 3.58 17.99 2.75 17.99 2.36C17.99 1.3 17.13 0.44 16.07 0.44C15.01 0.44 14.14 1.3 14.14 2.36C14.14 2.82 14.55 3.68 14.55 3.68C14.81 4.24 14.93 4.59 14.93 5.18C14.93 5.68 14.76 6.26 14.42 6.96C14.25 7.29 14.06 7.73 13.88 8.17C13.77 7.9 13.65 7.65 13.53 7.4C13.26 6.84 12.98 5.94 12.98 5.29C12.98 4.68 13.08 4.22 13.37 3.51C13.38 3.47 13.77 2.55 13.77 2.11C13.77 0.95 12.82 0 11.65 0C10.48 0 9.53 0.95 9.53 2.11C9.53 2.62 9.99 3.58 9.99 3.58C10.27 4.2 10.41 4.61 10.41 5.29C10.41 5.86 10.22 6.52 9.83 7.3C9.71 7.56 9.57 7.84 9.42 8.17C9.26 7.74 9.08 7.34 8.94 7.04C8.7 6.55 8.45 5.76 8.45 5.18C8.45 4.65 8.54 4.24 8.8 3.62C8.81 3.58 9.16 2.75 9.16 2.36C9.16 1.3 8.29 0.44 7.23 0.44C7 0.44 6.78 0.48 6.56 0.56C6.47 0.59 6.41 0.66 6.37 0.74C6.33 0.83 6.33 0.93 6.36 1.01C6.39 1.1 6.46 1.17 6.54 1.21C6.62 1.25 6.72 1.25 6.81 1.22C6.95 1.17 7.09 1.14 7.23 1.14C7.9 1.14 8.45 1.69 8.45 2.36C8.45 2.61 8.16 3.31 8.14 3.35C8.02 3.64 7.94 3.89 7.88 4.13L6.65 4.13C6.58 3.89 6.48 3.65 6.36 3.38L6.34 3.36C6.2 3.06 6.02 2.66 6.02 2.36C6.02 2.19 6.05 2.02 6.12 1.87C6.14 1.82 6.15 1.78 6.15 1.73C6.15 1.69 6.14 1.64 6.13 1.6C6.11 1.55 6.08 1.51 6.05 1.48C6.02 1.45 5.98 1.42 5.94 1.4C5.9 1.38 5.85 1.37 5.81 1.37C5.76 1.37 5.71 1.38 5.67 1.39C5.63 1.41 5.59 1.44 5.55 1.47C5.52 1.5 5.49 1.54 5.48 1.58C5.37 1.83 5.31 2.09 5.31 2.36C5.31 2.82 5.72 3.68 5.72 3.68C5.98 4.24 6.09 4.59 6.09 5.18C6.09 5.68 5.92 6.26 5.58 6.96C5.27 7.58 4.85 8.43 4.65 9.53C4.63 9.54 4.62 9.56 4.61 9.57L0.07 15.19C0.01 15.27 -0.01 15.36 0 15.45C0.01 15.54 0.05 15.63 0.13 15.69C0.2 15.75 0.29 15.78 0.39 15.77C0.48 15.76 0.57 15.71 0.62 15.64L4.52 10.8C4.52 10.81 4.52 10.82 4.52 10.84C4.52 11.13 4.53 11.47 4.56 11.83C4.54 11.85 4.52 11.87 4.5 11.9L0.05 18.58C0 18.65 -0.02 18.75 0 18.84C0.02 18.93 0.08 19.01 0.15 19.07C0.23 19.12 0.33 19.14 0.42 19.12C0.51 19.1 0.59 19.05 0.64 18.97L4.69 12.89C4.73 13.11 4.78 13.34 4.85 13.55C4.84 13.56 4.84 13.57 4.83 13.58L0.03 22.79C-0.01 22.87 -0.01 22.97 0.01 23.06C0.04 23.15 0.1 23.22 0.19 23.26C0.27 23.31 0.37 23.31 0.45 23.29C0.54 23.26 0.62 23.2 0.66 23.11L5.21 14.39C5.42 14.74 5.7 15 6.07 15.11C6.45 15.22 6.84 15.27 7.24 15.27C7.61 15.27 7.98 15.22 8.32 15.13C8.13 15.31 7.96 15.51 7.8 15.72C7.75 15.8 7.72 15.89 7.74 15.99C7.75 16.08 7.8 16.16 7.88 16.22C8.04 16.33 8.26 16.3 8.37 16.14C9.14 15.1 10.36 14.48 11.65 14.48C13.89 14.48 15.71 16.3 15.71 18.54C15.71 20.78 13.89 22.6 11.65 22.6C9.41 22.6 7.59 20.78 7.59 18.54C7.59 18.04 7.68 17.54 7.86 17.07C7.9 16.98 7.89 16.89 7.86 16.8C7.82 16.71 7.75 16.65 7.66 16.61C7.62 16.6 7.57 16.59 7.53 16.59C7.48 16.59 7.43 16.6 7.39 16.62C7.35 16.64 7.31 16.66 7.28 16.7C7.25 16.73 7.22 16.77 7.2 16.81C6.99 17.36 6.88 17.95 6.88 18.54C6.88 21.17 9.02 23.3 11.65 23.3C14.28 23.3 16.42 21.17 16.42 18.54C16.42 17.2 15.86 15.99 14.98 15.13C15.33 15.22 15.7 15.27 16.08 15.27C16.47 15.27 16.87 15.22 17.23 15.11C17.6 15 17.88 14.74 18.09 14.39L22.64 23.11C22.66 23.16 22.69 23.19 22.73 23.22C22.76 23.25 22.8 23.27 22.84 23.29C22.89 23.3 22.94 23.31 22.98 23.3C23.03 23.3 23.07 23.29 23.11 23.26C23.16 23.24 23.19 23.21 23.22 23.18C23.25 23.14 23.27 23.1 23.29 23.06C23.3 23.01 23.31 22.97 23.3 22.92C23.3 22.87 23.29 22.83 23.26 22.79L18.47 13.58ZM14.85 2.36C14.85 1.69 15.4 1.14 16.07 1.14C16.74 1.14 17.28 1.69 17.28 2.36C17.28 2.61 16.99 3.31 16.98 3.35C16.86 3.64 16.77 3.89 16.71 4.13L15.49 4.13C15.41 3.89 15.32 3.65 15.19 3.38L15.18 3.36C15.04 3.06 14.85 2.66 14.85 2.36ZM10.24 2.11C10.24 1.34 10.87 0.7 11.65 0.7C12.43 0.7 13.06 1.34 13.06 2.11C13.06 2.4 12.73 3.2 12.71 3.24C12.58 3.58 12.48 3.87 12.41 4.14L10.97 4.14C10.88 3.87 10.77 3.59 10.62 3.28L10.61 3.25C10.45 2.92 10.24 2.46 10.24 2.11ZM12.28 5.47L11.11 5.47C11.12 5.41 11.12 5.35 11.12 5.29C11.12 5.13 11.11 4.99 11.1 4.85L12.29 4.85C12.28 5 12.27 5.14 12.27 5.29C12.27 5.35 12.27 5.41 12.28 5.47ZM7.76 4.83C7.75 4.95 7.75 5.07 7.75 5.18C7.75 5.22 7.75 5.26 7.75 5.3L6.79 5.3C6.8 5.26 6.8 5.22 6.8 5.18C6.8 5.06 6.79 4.94 6.78 4.83L7.76 4.83ZM6.27 14.43C5.64 14.25 5.23 12.84 5.23 10.84C5.23 9.26 5.8 8.11 6.22 7.27C6.44 6.81 6.6 6.4 6.69 6.01L7.85 6.01C7.95 6.49 8.13 6.98 8.3 7.35C8.53 7.81 8.84 8.56 9.04 9.19C8.81 9.9 8.65 10.71 8.65 11.65C8.65 12.22 8.68 12.94 8.78 13.65C8.78 13.66 8.78 13.66 8.78 13.67C8.57 14.22 8.41 14.36 8.19 14.43C7.59 14.61 6.89 14.61 6.27 14.43ZM9.61 14.23C9.45 13.54 9.35 12.64 9.35 11.65C9.35 10.81 9.5 10.07 9.7 9.43C9.74 9.37 9.77 9.3 9.77 9.23C9.98 8.6 10.24 8.07 10.47 7.62C10.73 7.09 10.91 6.62 11.01 6.17L12.38 6.17C12.49 6.72 12.69 7.29 12.89 7.7C13.45 8.86 13.95 10.03 13.95 11.65C13.95 12.64 13.85 13.53 13.68 14.23C13.05 13.92 12.35 13.77 11.65 13.77C10.94 13.77 10.25 13.93 9.61 14.23ZM17.03 14.43C16.43 14.61 15.73 14.61 15.1 14.43C14.83 14.35 14.63 14.04 14.5 13.75C14.62 13.01 14.65 12.24 14.65 11.65C14.65 10.72 14.5 9.91 14.27 9.19C14.46 8.57 14.8 7.79 15.05 7.27C15.28 6.81 15.43 6.4 15.53 6.01L15.99 6.01C16.08 6.01 16.17 5.97 16.24 5.9C16.31 5.84 16.34 5.75 16.34 5.65C16.34 5.56 16.31 5.47 16.24 5.4C16.17 5.34 16.08 5.3 15.99 5.3L15.63 5.3C15.63 5.26 15.63 5.22 15.63 5.18C15.63 5.06 15.63 4.94 15.62 4.83L16.59 4.83C16.58 4.95 16.58 5.07 16.58 5.18C16.58 5.87 16.86 6.77 17.14 7.35C17.63 8.37 18.07 9.41 18.07 10.84C18.07 12.83 17.66 14.24 17.03 14.43Z" fill="#BBBBBB" fill-opacity="1.000000" fill-rule="nonzero"/>
	<path id="Vector" d="M11.26 7.61C11.17 7.57 11.08 7.57 10.99 7.6C10.9 7.63 10.83 7.69 10.78 7.77C10.19 8.96 9.71 10.08 9.71 11.65C9.71 11.74 9.74 11.83 9.81 11.9C9.88 11.97 9.97 12 10.06 12C10.15 12 10.24 11.97 10.31 11.9C10.38 11.83 10.41 11.74 10.41 11.65C10.41 10.23 10.87 9.2 11.41 8.09C11.46 8 11.46 7.91 11.43 7.82C11.4 7.73 11.34 7.66 11.26 7.61ZM10.94 2.47C11.04 2.47 11.13 2.43 11.19 2.36C11.26 2.3 11.3 2.21 11.3 2.11C11.3 1.92 11.45 1.76 11.65 1.76C11.74 1.76 11.83 1.72 11.9 1.66C11.97 1.59 12 1.5 12 1.41C12 1.31 11.97 1.22 11.9 1.16C11.83 1.09 11.74 1.05 11.65 1.05C11.07 1.05 10.59 1.53 10.59 2.11C10.59 2.16 10.6 2.21 10.62 2.25C10.63 2.29 10.66 2.33 10.69 2.36C10.73 2.4 10.76 2.42 10.81 2.44C10.85 2.46 10.9 2.47 10.94 2.47ZM15.82 7.41C15.74 7.36 15.64 7.36 15.55 7.39C15.46 7.42 15.39 7.48 15.35 7.57C15.08 8.12 14.86 8.59 14.69 9.1C14.67 9.15 14.67 9.21 14.68 9.26C14.69 9.32 14.71 9.37 14.74 9.41C14.77 9.46 14.82 9.5 14.87 9.52C14.91 9.55 14.97 9.56 15.03 9.56C15.1 9.56 15.17 9.54 15.23 9.49C15.29 9.45 15.34 9.39 15.36 9.32C15.52 8.85 15.72 8.4 15.98 7.88C16.07 7.7 16 7.49 15.82 7.41ZM15.52 2.76C15.62 2.76 15.71 2.72 15.77 2.66C15.84 2.59 15.88 2.5 15.88 2.41C15.88 2.33 15.91 2.26 15.96 2.2C16.02 2.15 16.09 2.12 16.17 2.12C16.26 2.12 16.35 2.08 16.42 2.01C16.48 1.95 16.52 1.86 16.52 1.76C16.52 1.67 16.48 1.58 16.42 1.51C16.35 1.45 16.26 1.41 16.17 1.41C15.62 1.41 15.17 1.86 15.17 2.41C15.17 2.5 15.21 2.59 15.27 2.66C15.34 2.72 15.43 2.76 15.52 2.76ZM6.99 7.23C6.91 7.19 6.81 7.18 6.72 7.21C6.63 7.24 6.56 7.3 6.52 7.39C5.98 8.48 5.53 9.5 5.53 10.94C5.53 11.04 5.57 11.13 5.63 11.19C5.7 11.26 5.79 11.3 5.88 11.3C5.98 11.3 6.07 11.26 6.13 11.19C6.2 11.13 6.24 11.04 6.24 10.94C6.24 9.65 6.65 8.71 7.15 7.7C7.19 7.62 7.2 7.52 7.17 7.43C7.14 7.34 7.07 7.27 6.99 7.23ZM6.69 2.85C6.78 2.85 6.87 2.81 6.94 2.75C7.01 2.68 7.04 2.59 7.04 2.5C7.04 2.33 7.17 2.2 7.33 2.2C7.43 2.2 7.52 2.16 7.58 2.1C7.65 2.03 7.68 1.94 7.68 1.85C7.68 1.76 7.65 1.67 7.58 1.6C7.52 1.54 7.43 1.5 7.33 1.5C6.78 1.5 6.34 1.95 6.34 2.5C6.34 2.59 6.37 2.68 6.44 2.75C6.51 2.81 6.6 2.85 6.69 2.85ZM14.06 20.33C14.35 20.33 14.63 20.21 14.83 20C15.23 19.57 15.22 18.9 14.79 18.5C14.59 18.31 14.33 18.21 14.06 18.21C13.92 18.21 13.78 18.24 13.64 18.29C13.51 18.35 13.39 18.43 13.29 18.54C13.2 18.64 13.12 18.75 13.07 18.88C13.02 19.01 13 19.15 13 19.29C13 19.43 13.04 19.57 13.09 19.7C13.15 19.82 13.23 19.94 13.33 20.03C13.53 20.22 13.79 20.33 14.06 20.33ZM13.81 19.02C13.84 18.99 13.88 18.96 13.92 18.94C13.97 18.92 14.01 18.91 14.06 18.91C14.15 18.91 14.24 18.95 14.31 19.01C14.45 19.14 14.45 19.37 14.32 19.51C14.28 19.54 14.25 19.57 14.2 19.59C14.16 19.61 14.11 19.62 14.06 19.62C13.97 19.62 13.88 19.58 13.82 19.52C13.78 19.49 13.76 19.45 13.74 19.41C13.72 19.37 13.71 19.32 13.71 19.27C13.71 19.23 13.72 19.18 13.73 19.14C13.75 19.1 13.77 19.06 13.81 19.02ZM12 20.01C11.85 20.01 11.71 20.04 11.58 20.1C11.45 20.15 11.33 20.23 11.23 20.34C11.04 20.54 10.93 20.81 10.94 21.09C10.94 21.23 10.97 21.37 11.03 21.5C11.09 21.63 11.17 21.74 11.27 21.84C11.47 22.02 11.73 22.13 12 22.13C12.29 22.13 12.57 22.01 12.77 21.8C13.17 21.38 13.15 20.7 12.73 20.3C12.53 20.11 12.27 20.01 12 20.01ZM12.25 21.31C12.22 21.35 12.18 21.37 12.14 21.39C12.09 21.41 12.05 21.42 12 21.42C11.91 21.42 11.82 21.39 11.75 21.32C11.72 21.29 11.69 21.25 11.67 21.21C11.66 21.17 11.65 21.12 11.65 21.08C11.64 21.03 11.65 20.98 11.67 20.94C11.69 20.9 11.71 20.86 11.74 20.83C11.78 20.79 11.82 20.76 11.86 20.74C11.9 20.72 11.95 20.72 12 20.72C12.09 20.72 12.18 20.75 12.24 20.81C12.38 20.95 12.39 21.17 12.25 21.31ZM11.5 17.46C11.35 17.46 11.21 17.49 11.08 17.55C10.95 17.6 10.83 17.68 10.73 17.79C10.33 18.21 10.34 18.88 10.77 19.29C10.96 19.47 11.23 19.58 11.5 19.58C11.64 19.58 11.78 19.55 11.91 19.49C12.05 19.44 12.17 19.35 12.26 19.25C12.67 18.83 12.65 18.15 12.23 17.75C12.03 17.56 11.77 17.46 11.5 17.46ZM11.75 18.76C11.72 18.8 11.68 18.82 11.64 18.84C11.59 18.86 11.55 18.87 11.5 18.87C11.41 18.87 11.32 18.84 11.25 18.77C11.11 18.64 11.11 18.42 11.24 18.28C11.27 18.24 11.31 18.21 11.36 18.19C11.4 18.18 11.45 18.17 11.5 18.17C11.59 18.17 11.67 18.2 11.74 18.26C11.88 18.4 11.89 18.62 11.75 18.76ZM11.65 14.83C9.6 14.83 7.94 16.49 7.94 18.54C7.94 18.63 7.98 18.72 8.04 18.79C8.11 18.85 8.2 18.89 8.29 18.89C8.39 18.89 8.48 18.85 8.54 18.79C8.61 18.72 8.65 18.63 8.65 18.54C8.65 16.88 9.99 15.53 11.65 15.53C11.7 15.54 11.74 15.53 11.79 15.51C11.83 15.49 11.87 15.47 11.9 15.43C11.93 15.4 11.96 15.36 11.98 15.32C12 15.27 12.01 15.23 12.01 15.18C12.01 15.14 12 15.09 11.98 15.05C11.96 15 11.93 14.96 11.9 14.93C11.87 14.9 11.83 14.87 11.79 14.85C11.74 14.84 11.7 14.83 11.65 14.83ZM21.92 16.59C21.87 16.51 21.79 16.46 21.7 16.44C21.61 16.42 21.51 16.44 21.43 16.49C21.36 16.54 21.3 16.62 21.28 16.72C21.26 16.81 21.28 16.9 21.33 16.98L22.66 18.97C22.69 19.02 22.73 19.06 22.78 19.08C22.83 19.11 22.89 19.13 22.95 19.13C23.02 19.13 23.09 19.11 23.15 19.07C23.18 19.04 23.22 19.01 23.25 18.97C23.27 18.93 23.29 18.89 23.3 18.84C23.31 18.8 23.31 18.75 23.3 18.7C23.29 18.66 23.27 18.62 23.25 18.58L21.92 16.59Z" fill="#BBBBBB" fill-opacity="1.000000" fill-rule="nonzero"/>
</svg>
