<svg width="24.000000" height="24.000000" viewBox="0 0 24 24" fill="none" xmlns="http://www.w3.org/2000/svg" xmlns:xlink="http://www.w3.org/1999/xlink">
	<desc>
			Created with Pixso.
	</desc>
	<defs/>
	<path id="Vector" d="M23.11 22.79C23.22 22.63 23.28 22.44 23.3 22.25C23.32 22.06 23.29 21.87 23.21 21.69L21.92 18.58C21.83 18.37 21.68 18.19 21.49 18.06C21.3 17.93 21.07 17.87 20.84 17.87L2.46 17.87C2.23 17.87 2 17.93 1.81 18.06C1.62 18.19 1.47 18.37 1.38 18.58L0.08 21.69C0.01 21.87 -0.02 22.06 0 22.25C0.02 22.44 0.08 22.63 0.19 22.79C0.3 22.95 0.44 23.08 0.61 23.17C0.78 23.26 0.97 23.31 1.16 23.31L22.14 23.31C22.33 23.31 22.52 23.26 22.69 23.17C22.86 23.08 23 22.95 23.11 22.79ZM21.2 18.88L21.75 20.2L17.2 20.2L16.81 18.64L20.84 18.64C20.92 18.64 21 18.67 21.06 18.71C21.12 18.75 21.17 18.81 21.2 18.88ZM11.26 20.98L11.26 22.53L6.32 22.53L6.71 20.98L11.26 20.98ZM6.9 20.2L7.29 18.64L11.26 18.64L11.26 20.2L6.9 20.2ZM12.04 20.98L16.59 20.98L16.98 22.53L12.04 22.53L12.04 20.98ZM12.04 20.2L12.04 18.64L16.01 18.64L16.4 20.2L12.04 20.2ZM2.1 18.88C2.13 18.81 2.18 18.75 2.24 18.71C2.3 18.67 2.38 18.64 2.46 18.64L6.49 18.64L6.1 20.2L1.55 20.2L2.1 18.88ZM0.84 22.36C0.8 22.3 0.78 22.24 0.77 22.18C0.77 22.11 0.78 22.05 0.8 21.99L1.23 20.98L5.91 20.98L5.52 22.53L1.16 22.53C1.1 22.53 1.03 22.51 0.98 22.48C0.92 22.45 0.87 22.41 0.84 22.36ZM22.46 22.36C22.43 22.41 22.38 22.45 22.32 22.48C22.27 22.51 22.2 22.53 22.14 22.53L17.78 22.53L17.39 20.98L22.07 20.98L22.5 21.99C22.52 22.05 22.53 22.11 22.53 22.18C22.52 22.24 22.5 22.3 22.46 22.36ZM6.21 8.93C6.21 9.96 6.5 10.96 7.05 11.83C7.59 12.7 8.37 13.4 9.3 13.84C10.22 14.28 11.25 14.45 12.27 14.34C13.29 14.22 14.26 13.82 15.06 13.17C15.86 12.53 16.46 11.67 16.79 10.7C17.13 9.73 17.18 8.69 16.95 7.69C16.71 6.69 16.2 5.78 15.47 5.06C14.74 4.34 13.82 3.84 12.82 3.62L12.82 2.33L13.59 2.33C13.9 2.33 14.2 2.2 14.42 1.98C14.64 1.77 14.76 1.47 14.76 1.16L14.76 0.77C14.76 0.57 14.68 0.37 14.53 0.22C14.38 0.08 14.19 0 13.98 0L9.32 0C9.11 0 8.91 0.08 8.77 0.22C8.62 0.37 8.54 0.57 8.54 0.77L8.54 1.16C8.54 1.47 8.66 1.77 8.88 1.98C9.1 2.2 9.4 2.33 9.71 2.33L10.48 2.33L10.48 3.62C9.27 3.89 8.19 4.56 7.41 5.52C6.64 6.49 6.21 7.69 6.21 8.93ZM12.91 6.6L12.9 6.6C12.43 6.6 11.98 6.78 11.65 7.11C11.32 6.78 10.87 6.6 10.4 6.6L10.39 6.6C10.59 5.75 11.03 4.98 11.65 4.37C12.27 4.98 12.71 5.75 12.91 6.6ZM11.65 13.49C11.07 12.93 10.66 12.23 10.45 11.46C10.78 11.68 11.14 11.86 11.51 12.01C11.6 12.05 11.7 12.05 11.79 12.01C12.16 11.86 12.52 11.68 12.85 11.46C12.64 12.23 12.23 12.93 11.65 13.49ZM11.65 11.23C11.13 10.99 9.32 10.06 9.32 8.56C9.31 8.26 9.41 7.97 9.61 7.75C9.82 7.52 10.1 7.39 10.4 7.38C10.59 7.38 10.77 7.43 10.93 7.53C11.09 7.63 11.22 7.77 11.31 7.93C11.35 7.99 11.4 8.03 11.46 8.06C11.52 8.09 11.58 8.11 11.65 8.11C11.72 8.11 11.78 8.09 11.84 8.06C11.9 8.03 11.95 7.99 11.99 7.93C12.08 7.77 12.21 7.63 12.37 7.53C12.53 7.43 12.71 7.38 12.9 7.38C13.2 7.39 13.48 7.52 13.69 7.75C13.89 7.97 13.99 8.26 13.98 8.56C13.98 10.06 12.17 10.99 11.65 11.23ZM10.59 4.4C10.06 5.12 9.7 5.96 9.53 6.84C9.23 7.01 8.98 7.26 8.81 7.56C8.64 7.86 8.54 8.2 8.54 8.54L7.01 8.54C7.09 7.56 7.48 6.63 8.13 5.89C8.77 5.14 9.63 4.62 10.59 4.4ZM7.01 9.32L8.65 9.32C8.81 9.82 9.09 10.28 9.46 10.65C9.61 11.67 9.99 12.63 10.59 13.47C9.63 13.24 8.77 12.72 8.12 11.97C7.48 11.23 7.09 10.3 7.01 9.32ZM12.71 13.47C13.31 12.63 13.69 11.67 13.84 10.65C14.21 10.28 14.49 9.82 14.65 9.32L16.29 9.32C16.21 10.3 15.82 11.23 15.17 11.97C14.53 12.72 13.67 13.24 12.71 13.47ZM16.29 8.54L14.76 8.54C14.76 8.2 14.66 7.86 14.49 7.56C14.32 7.26 14.07 7.01 13.77 6.84C13.6 5.96 13.24 5.12 12.71 4.4C13.67 4.62 14.53 5.14 15.17 5.89C15.82 6.63 16.21 7.56 16.29 8.54ZM9.32 1.16L9.32 0.77L13.98 0.77L13.98 1.16C13.98 1.26 13.94 1.36 13.87 1.44C13.79 1.51 13.7 1.55 13.59 1.55L9.71 1.55C9.6 1.55 9.51 1.51 9.43 1.44C9.36 1.36 9.32 1.26 9.32 1.16ZM11.26 2.33L12.04 2.33L12.04 3.51C11.91 3.5 11.78 3.49 11.65 3.49C11.52 3.49 11.39 3.5 11.26 3.51L11.26 2.33Z" fill="#BBBBBB" fill-opacity="1.000000" fill-rule="nonzero"/>
</svg>
