<svg width="24.000000" height="24.000000" viewBox="0 0 24 24" fill="none" xmlns="http://www.w3.org/2000/svg" xmlns:xlink="http://www.w3.org/1999/xlink">
	<desc>
			Created with Pixso.
	</desc>
	<defs/>
	<path id="Vector" d="M22.15 19.09C22.17 18.99 22.18 18.89 22.18 18.79C22.18 17.55 21.17 16.54 19.92 16.54C19.63 16.54 19.35 16.59 19.1 16.7C18.83 16.33 18.46 16.07 18.04 15.92L18.04 11.75C18.59 12.38 19.4 12.78 20.3 12.78C21.96 12.78 23.3 11.43 23.3 9.77C23.31 9.28 23.19 8.81 22.96 8.38C22.74 7.95 22.41 7.58 22.01 7.3C22.12 7.01 22.18 6.7 22.18 6.39C22.18 5.3 21.5 4.34 20.52 3.94C20.62 3.64 20.67 3.32 20.67 3C20.67 1.34 19.32 0 17.67 0C16.01 0 14.66 1.34 14.66 3C14.66 3.32 14.71 3.64 14.81 3.94C13.83 4.34 13.15 5.3 13.15 6.39C13.15 6.7 13.21 7.01 13.32 7.3C12.92 7.58 12.59 7.95 12.37 8.38C12.14 8.81 12.03 9.28 12.03 9.77C12.03 11.43 13.37 12.78 15.03 12.78C15.93 12.78 16.74 12.38 17.29 11.75L17.29 15.79C16.55 15.79 15.89 16.15 15.48 16.7C15.22 16.59 14.94 16.54 14.66 16.54C13.89 16.54 13.19 16.94 12.78 17.56L12.78 15.79L14.28 15.79L14.28 13.53L12.78 13.53L12.78 12.62L11.27 11.12L9.77 12.62L9.77 13.53L9.02 13.53L9.02 12.62L7.51 11.12L6.76 11.87L6.76 8.64L7.89 8.64C9.34 8.64 10.52 7.46 10.52 6.01L10.52 5.63L8.64 5.63C7.91 5.63 7.24 5.94 6.76 6.43L6.76 4.88L7.89 4.88C9.34 4.88 10.52 3.7 10.52 2.25L10.52 1.87L8.64 1.87C8.38 1.87 8.12 1.92 7.87 1.99L6.39 0.14L4.91 1.99C4.66 1.92 4.4 1.87 4.13 1.87L2.25 1.87L2.25 2.25C2.25 3.7 3.43 4.88 4.88 4.88L6.01 4.88L6.01 8.31C5.53 7.82 4.87 7.51 4.13 7.51L2.25 7.51L2.25 7.89C2.25 9.34 3.43 10.52 4.88 10.52L6.01 10.52L6.01 13.53L5.26 13.53L5.26 12.62L3.75 11.12L2.25 12.62L2.25 13.53L0.75 13.53L0.75 15.79L2.25 15.79L2.25 18.04L0.75 18.04L0.75 20.3L2.25 20.3L2.25 22.55L1.5 22.55L1.5 23.31L21.05 23.31C22.29 23.31 23.3 22.29 23.3 21.05C23.3 20.22 22.86 19.48 22.15 19.09ZM15.03 12.03C13.79 12.03 12.78 11.01 12.78 9.77C12.78 8.94 13.24 8.17 13.97 7.78L14.3 7.6L14.13 7.27C13.98 7 13.91 6.7 13.91 6.39C13.91 5.5 14.53 4.73 15.39 4.55L15.87 4.45L15.65 4.01C15.49 3.69 15.41 3.35 15.41 3C15.41 1.76 16.42 0.75 17.67 0.75C18.91 0.75 19.92 1.76 19.92 3C19.92 3.35 19.84 3.69 19.68 4.01L19.46 4.45L19.94 4.55C20.8 4.73 21.42 5.5 21.42 6.39C21.42 6.7 21.35 7 21.2 7.27L21.03 7.6L21.36 7.78C22.1 8.17 22.55 8.94 22.55 9.77C22.55 11.01 21.54 12.03 20.3 12.03C19.35 12.03 18.54 11.44 18.21 10.61L19.95 9.45L21.26 10.11L21.59 9.43L19.89 8.58L18.04 9.82C18.04 9.8 18.04 9.79 18.04 9.77L18.04 7.7L18.47 7.35L19.28 8.16L19.81 7.62L19.06 6.88L19.78 6.3L19.31 5.72L18.04 6.73L18.04 5.08L19 4.44L18.58 3.82L18.04 4.18L18.04 3.18L16.75 2.31L16.33 2.94L17.29 3.58L17.29 8.24L16.07 7.26L15.35 6.18L14.72 6.59L15.3 7.47L14.39 8.38L14.92 8.91L15.82 8.01L17.29 9.2L17.29 9.77C17.29 11.01 16.28 12.03 15.03 12.03ZM8.64 6.39L9.73 6.39C9.56 7.24 8.8 7.89 7.89 7.89L6.8 7.89C6.97 7.03 7.73 6.39 8.64 6.39ZM9.73 2.63C9.56 3.47 8.83 4.1 7.94 4.13C8.15 3.84 8.27 3.49 8.27 3.12C8.27 2.97 8.24 2.82 8.21 2.68C8.35 2.65 8.49 2.63 8.64 2.63L9.73 2.63ZM5.48 2.48L6.39 1.35L7.29 2.48C7.44 2.66 7.51 2.88 7.51 3.12C7.51 3.68 7.06 4.13 6.5 4.13L6.27 4.13C5.71 4.13 5.26 3.68 5.26 3.12C5.26 2.89 5.34 2.66 5.48 2.48ZM3.04 2.63L4.13 2.63C4.28 2.63 4.42 2.65 4.57 2.68C4.53 2.82 4.51 2.97 4.51 3.12C4.51 3.49 4.63 3.84 4.83 4.13C3.95 4.1 3.21 3.47 3.04 2.63ZM4.88 9.77C3.97 9.77 3.21 9.12 3.04 8.27L4.13 8.27C5.04 8.27 5.8 8.91 5.97 9.77L4.88 9.77ZM13.53 14.28L13.53 15.03L12.78 15.03L12.78 14.28L13.53 14.28ZM11.27 12.18L12.03 12.93L12.03 17.32C11.9 17.3 11.78 17.29 11.65 17.29C11.24 17.29 10.86 17.4 10.52 17.59L10.52 12.93L11.27 12.18ZM9.77 18.31C9.67 18.46 9.59 18.63 9.52 18.81C9.35 18.83 9.18 18.87 9.02 18.93L9.02 15.79L9.77 15.79L9.77 18.31ZM9.77 14.28L9.77 15.03L9.02 15.03L9.02 14.28L9.77 14.28ZM8.27 12.93L8.27 19.37C7.81 19.79 7.51 20.38 7.51 21.05C7.51 21.63 7.73 22.15 8.09 22.55L6.76 22.55L6.76 12.93L7.51 12.18L8.27 12.93ZM6.01 18.04L5.26 18.04L5.26 15.79L6.01 15.79L6.01 18.04ZM6.01 18.79L6.01 19.55L5.26 19.55L5.26 18.79L6.01 18.79ZM6.01 20.3L6.01 22.55L5.26 22.55L5.26 20.3L6.01 20.3ZM6.01 14.28L6.01 15.03L5.26 15.03L5.26 14.28L6.01 14.28ZM1.5 15.03L1.5 14.28L2.25 14.28L2.25 15.03L1.5 15.03ZM1.5 19.55L1.5 18.79L2.25 18.79L2.25 19.55L1.5 19.55ZM3 12.93L3.75 12.18L4.51 12.93L4.51 22.55L3 22.55L3 12.93ZM21.05 22.55L9.77 22.55C8.94 22.55 8.27 21.88 8.27 21.05C8.27 20.22 8.94 19.55 9.77 19.55C10.6 19.55 11.27 20.22 11.27 21.05L12.03 21.05C12.03 19.99 11.3 19.11 10.32 18.86C10.57 18.37 11.08 18.04 11.65 18.04C12.48 18.04 13.15 18.72 13.15 19.55L13.91 19.55C13.91 18.98 13.69 18.46 13.34 18.06C13.61 17.59 14.11 17.29 14.66 17.29C14.82 17.29 14.98 17.32 15.14 17.37C15.07 17.59 15.03 17.81 15.03 18.04L15.79 18.04C15.79 17.21 16.46 16.54 17.29 16.54C17.75 16.54 18.17 16.74 18.45 17.09C17.97 17.5 17.67 18.11 17.67 18.79L18.42 18.79C18.42 17.96 19.09 17.29 19.92 17.29C20.75 17.29 21.42 17.96 21.42 18.79C21.42 18.91 21.41 19.04 21.36 19.2L21.27 19.53L21.59 19.65C22.17 19.88 22.55 20.43 22.55 21.05C22.55 21.88 21.88 22.55 21.05 22.55ZM0 22.55L0.75 22.55L0.75 23.31L0 23.31L0 22.55Z" fill="#1A32B5" fill-opacity="1.000000" fill-rule="nonzero"/>
	<path id="Vector" d="M20.67 13.53L18.79 13.53L18.79 13.91C18.79 14.94 19.64 15.79 20.67 15.79L22.55 15.79L22.55 15.41C22.55 14.37 21.71 13.53 20.67 13.53ZM20.67 15.03C20.18 15.03 19.77 14.72 19.61 14.28L20.67 14.28C21.16 14.28 21.58 14.6 21.74 15.03L20.67 15.03Z" fill="#1A32B5" fill-opacity="1.000000" fill-rule="nonzero"/>
</svg>
