<svg width="24.000000" height="21.000000" viewBox="0 0 24 21" fill="none" xmlns="http://www.w3.org/2000/svg" xmlns:xlink="http://www.w3.org/1999/xlink">
	<desc>
			Created with Pixso.
	</desc>
	<defs/>
	<path id="Vector" d="M3.68 11.46C4.3 10.89 5.08 10.48 5.96 10.29C6.46 10.18 6.96 10.15 7.46 10.2C7.38 10.15 7.3 10.07 7.25 9.99L6.01 7.96L7.85 9.84C7.95 9.94 8.08 10.02 8.22 10.07L11.51 11.11C11.98 11.26 12.48 11 12.63 10.53C12.78 10.07 12.52 9.57 12.05 9.42L8.97 8.44L7.28 6.72L8.31 7.38L8.21 6.15C8.15 5.31 7.42 4.69 6.58 4.75L4.69 4.9C3.85 4.97 3.23 5.7 3.29 6.53L3.68 11.46Z" fill="#BBBBBB" fill-opacity="1.000000" fill-rule="nonzero"/>
	<path id="Vector" d="M6.16 0.18C7.24 0.29 8.04 1.25 7.93 2.34C7.83 3.43 6.86 4.22 5.78 4.12C4.69 4.01 3.89 3.05 4 1.96C4.1 0.88 5.07 0.08 6.16 0.18Z" fill="#BBBBBB" fill-opacity="1.000000" fill-rule="evenodd"/>
	<path id="Vector" d="M10.6 11.35L9.82 11.07C10.05 11.23 10.27 11.42 10.48 11.62C10.52 11.53 10.56 11.44 10.6 11.35ZM13.51 16.11C14.03 15.83 14.23 15.18 13.94 14.66L12.67 12.32C12.5 12.66 12.4 13.04 12.4 13.43L12.4 16.05C12.72 16.27 13.15 16.31 13.51 16.11ZM3.68 11.46L1.07 6.2C0.93 5.92 0.59 5.8 0.31 5.94C0.03 6.08 -0.09 6.42 0.05 6.7L2.88 12.4C3.1 12.05 3.37 11.74 3.68 11.46ZM10.12 18.09L10.12 15.69C10.11 15.72 10.11 15.74 10.1 15.76L8.42 15.22C8.4 15.45 8.33 15.67 8.21 15.86L9.89 16.41C9.83 16.56 9.75 16.7 9.66 16.84C9.26 17.45 8.68 17.9 7.99 18.13L7.62 16.4C7.52 16.45 7.41 16.49 7.29 16.51C7.2 16.53 7.09 16.54 6.99 16.54C6.98 16.54 6.97 16.54 6.95 16.54L7.33 18.27C6.41 18.37 5.53 18.06 4.89 17.48L6.2 16.3C6.01 16.17 5.85 15.99 5.74 15.79L4.43 16.98C4.17 16.62 3.98 16.22 3.89 15.78C3.8 15.35 3.8 14.91 3.89 14.47L5.57 15.01C5.58 14.79 5.66 14.57 5.78 14.37L4.1 13.82C4.45 13.03 5.13 12.39 6 12.1L6.37 13.83C6.56 13.74 6.78 13.69 7 13.69L7 13.69C7.01 13.69 7.02 13.69 7.04 13.69L6.66 11.96C6.77 11.95 6.89 11.94 7 11.94C7.6 11.94 8.2 12.11 8.72 12.45C8.85 12.54 8.98 12.64 9.1 12.74L7.79 13.93C7.98 14.06 8.14 14.24 8.25 14.44L9.56 13.25C9.82 13.6 10 14.01 10.1 14.45C10.1 14.48 10.11 14.52 10.12 14.55L10.12 13.43C10.12 13.04 10.16 12.66 10.26 12.29C9.99 11.99 9.68 11.72 9.33 11.49C8.36 10.87 7.21 10.66 6.09 10.9C3.76 11.4 2.28 13.7 2.78 16.02C3.28 18.35 5.58 19.83 7.9 19.33C8.76 19.14 9.52 18.71 10.12 18.09Z" fill="#BBBBBB" fill-opacity="1.000000" fill-rule="nonzero"/>
	<path id="Vector" d="M6.79 14.16C6.26 14.28 5.93 14.79 6.04 15.32C6.16 15.84 6.67 16.18 7.2 16.07C7.72 15.95 8.06 15.44 7.94 14.91C7.83 14.39 7.32 14.05 6.79 14.16ZM11.3 11.6L11.14 11.54C10.84 12.11 10.69 12.75 10.69 13.39L10.69 18.37L11.83 17.97L11.83 13.39C11.83 12.66 12.1 11.98 12.56 11.45C12.2 11.69 11.74 11.76 11.3 11.6ZM23.3 5.09L13.09 9.68C13.09 9.68 13.08 9.68 13.08 9.69C13.22 10.01 13.25 10.39 13.11 10.75C13.07 10.87 13.01 10.99 12.93 11.1C13.12 10.94 13.33 10.81 13.56 10.71L23.3 6.34L23.3 5.09ZM23.3 14.44L8.73 19.66C8.41 19.77 8.5 20.24 8.83 20.24L23.3 20.24L23.3 14.44Z" fill="#BBBBBB" fill-opacity="1.000000" fill-rule="nonzero"/>
</svg>
