<svg width="24.000000" height="24.000000" viewBox="0 0 24 24" fill="none" xmlns="http://www.w3.org/2000/svg" xmlns:xlink="http://www.w3.org/1999/xlink">
	<desc>
			Created with Pixso.
	</desc>
	<defs/>
	<path id="Vector" d="M6.19 23.3C6.56 23.3 6.87 23 6.87 22.62L6.87 18.52C6.87 17.39 5.95 16.48 4.82 16.48L2.62 16.48L1.34 11.53C1.25 11.16 0.87 10.94 0.51 11.03C0.15 11.12 -0.08 11.5 0.02 11.86L1.41 17.24L1.41 22.62C1.41 23 1.71 23.3 2.09 23.3C2.47 23.3 2.77 23 2.77 22.62L2.77 19.21L5.5 19.21L5.5 22.62C5.5 23 5.81 23.3 6.19 23.3ZM21.21 23.3C21.59 23.3 21.89 23 21.89 22.62L21.89 17.24L23.28 11.86C23.38 11.5 23.15 11.12 22.79 11.03C22.42 10.94 22.05 11.16 21.96 11.53L20.68 16.48L18.48 16.48C17.35 16.48 16.43 17.39 16.43 18.52L16.43 22.62C16.43 23 16.74 23.3 17.11 23.3C17.49 23.3 17.8 23 17.8 22.62L17.8 19.21L20.53 19.21L20.53 22.62C20.53 23 20.83 23.3 21.21 23.3Z" fill="#BBBBBB" fill-opacity="1.000000" fill-rule="nonzero"/>
	<path id="Vector" d="M15 15.11L17.11 15.11C17.49 15.11 17.8 14.8 17.8 14.43C17.8 14.05 17.49 13.74 17.11 13.74L12.33 13.74L12.33 6.87L16.43 6.87L11.65 0L6.87 6.87L10.97 6.87L10.97 13.74L6.19 13.74C5.81 13.74 5.5 14.05 5.5 14.43C5.5 14.8 5.81 15.11 6.19 15.11L8.3 15.11C8.58 16.45 9.63 17.5 10.97 17.77L10.97 21.94L8.92 21.94C8.54 21.94 8.24 22.24 8.24 22.62C8.24 23 8.54 23.3 8.92 23.3L14.38 23.3C14.76 23.3 15.06 23 15.06 22.62C15.06 22.24 14.76 21.94 14.38 21.94L12.33 21.94L12.33 17.77C13.67 17.5 14.72 16.45 15 15.11ZM0.01 6.34C0.05 6.49 0.13 6.63 0.25 6.72C0.37 6.82 0.52 6.87 0.68 6.87L5.16 6.87L9.56 0.5L0.37 5.58C0.24 5.64 0.12 5.76 0.06 5.9C-0.01 6.04 -0.02 6.19 0.01 6.34ZM22.93 5.58L13.74 0.5L18.14 6.87L22.62 6.87C22.78 6.87 22.92 6.82 23.05 6.72C23.17 6.63 23.25 6.49 23.29 6.34C23.32 6.19 23.31 6.04 23.24 5.9C23.18 5.76 23.07 5.64 22.93 5.58Z" fill="#BBBBBB" fill-opacity="1.000000" fill-rule="nonzero"/>
</svg>
