<svg width="24.000000" height="24.000000" viewBox="0 0 24 24" fill="none" xmlns="http://www.w3.org/2000/svg" xmlns:xlink="http://www.w3.org/1999/xlink">
	<desc>
			Created with Pixso.
	</desc>
	<defs/>
	<path id="Vector" d="M21.07 2.86L19.27 1.96L19.27 0L14.79 0L14.79 1.96L13 2.86L13 4.48L21.07 4.48L21.07 2.86ZM20.17 16.13L13.89 16.13L13.89 20.17L20.17 20.17L20.17 16.13ZM17.93 17.48L16.13 17.48L16.13 16.58L17.93 16.58L17.93 17.48ZM3.13 20.62L10.75 20.62L10.75 17.93L3.13 17.93L3.13 20.62ZM5.82 18.82L7.62 18.82L7.62 19.72L5.82 19.72L5.82 18.82ZM3.13 17.03L10.75 17.03L10.75 14.34L3.13 14.34L3.13 17.03ZM5.82 15.24L7.62 15.24L7.62 16.13L5.82 16.13L5.82 15.24ZM2.68 6.35C2.39 6.46 2.13 6.67 1.97 6.94C1.81 7.21 1.75 7.53 1.81 7.85C1.86 8.16 2.02 8.44 2.27 8.65C2.51 8.85 2.82 8.97 3.13 8.97C3.45 8.97 3.76 8.85 4 8.65C4.24 8.44 4.41 8.16 4.46 7.85C4.51 7.53 4.45 7.21 4.29 6.94C4.13 6.67 3.88 6.46 3.58 6.35L3.58 2.24L7.62 2.24L7.62 4.07C6.95 4.18 6.35 4.54 5.94 5.07C5.53 5.61 5.33 6.28 5.38 6.95C5.44 7.62 5.75 8.25 6.24 8.7C6.74 9.16 7.39 9.41 8.06 9.41C8.74 9.41 9.39 9.16 9.89 8.7C10.38 8.25 10.69 7.62 10.75 6.95C10.8 6.28 10.6 5.61 10.19 5.07C9.78 4.54 9.18 4.18 8.51 4.07L8.51 2.24L10.75 2.24L10.75 1.34L8.51 1.34L8.51 0.44L7.62 0.44L7.62 1.34L3.58 1.34L3.58 0.44L2.68 0.44L2.68 1.34L1.34 1.34L1.34 2.24L2.68 2.24L2.68 6.35Z" fill="#1A32B5" fill-opacity="1.000000" fill-rule="nonzero"/>
	<path id="Vector" d="M23.31 11.2L19.27 11.2L19.27 9.86L17.48 9.86L17.48 10.75L18.38 10.75L18.38 11.2L15.69 11.2L15.69 10.75L16.58 10.75L16.58 9.86L14.79 9.86L14.79 11.2L0 11.2L0 12.1L0.44 12.1L0.44 23.31L22.86 23.31L22.86 12.1L23.31 12.1L23.31 11.2ZM2.24 13.44L11.65 13.44L11.65 21.51L2.24 21.51L2.24 13.44ZM21.07 21.07L13 21.07L13 15.24L21.07 15.24L21.07 21.07ZM17.25 13C17.39 13 17.52 13.04 17.63 13.11C17.74 13.18 17.83 13.29 17.88 13.41C17.93 13.53 17.94 13.67 17.91 13.8C17.89 13.93 17.83 14.05 17.73 14.14C17.64 14.24 17.52 14.3 17.39 14.33C17.26 14.35 17.12 14.34 17 14.29C16.87 14.24 16.77 14.15 16.7 14.04C16.62 13.93 16.58 13.8 16.58 13.67C16.58 13.49 16.65 13.32 16.78 13.19C16.91 13.07 17.08 13 17.25 13ZM19.5 13C19.63 13 19.76 13.04 19.87 13.11C19.98 13.18 20.07 13.29 20.12 13.41C20.17 13.53 20.18 13.67 20.16 13.8C20.13 13.93 20.07 14.05 19.97 14.14C19.88 14.24 19.76 14.3 19.63 14.33C19.5 14.35 19.36 14.34 19.24 14.29C19.12 14.24 19.01 14.15 18.94 14.04C18.86 13.93 18.82 13.8 18.82 13.67C18.82 13.49 18.9 13.32 19.02 13.19C19.15 13.07 19.32 13 19.5 13Z" fill="#1A32B5" fill-opacity="1.000000" fill-rule="nonzero"/>
</svg>
