<svg width="24.000000" height="24.000000" viewBox="0 0 24 24" fill="none" xmlns="http://www.w3.org/2000/svg" xmlns:xlink="http://www.w3.org/1999/xlink">
	<desc>
			Created with Pixso.
	</desc>
	<defs/>
	<path id="Vector" d="M14.15 20.35C14.06 20.31 13.97 20.31 13.88 20.35C13.8 20.39 13.73 20.46 13.7 20.54L12.73 23.01C12.69 23.09 12.7 23.19 12.73 23.27C12.77 23.36 12.84 23.42 12.92 23.45C13.01 23.49 13.1 23.49 13.19 23.45C13.27 23.41 13.33 23.35 13.37 23.26L14.34 20.79C14.36 20.75 14.37 20.71 14.37 20.66C14.36 20.62 14.35 20.57 14.34 20.53C14.32 20.49 14.29 20.45 14.26 20.42C14.23 20.39 14.19 20.36 14.15 20.35Z" fill="#BBBBBB" fill-opacity="1.000000" fill-rule="nonzero"/>
	<path id="Vector" d="M23.2 20.88L16.72 14.75L19.25 8.31L19.74 8.64L19.74 8.64C19.82 8.7 19.91 8.73 20 8.75C20.09 8.76 20.18 8.75 20.27 8.73C20.36 8.7 20.45 8.66 20.52 8.6C20.59 8.54 20.65 8.46 20.68 8.38L21.09 7.47L21.91 6.26C22.7 5.08 22.39 3.47 21.21 2.68L20.55 2.24L21.72 2.24C22.24 2.24 22.67 1.81 22.67 1.28L22.67 0.69L22.89 0.69C23.08 0.69 23.23 0.53 23.23 0.34C23.23 0.15 23.08 0 22.89 0L16.72 0C16.53 0 16.37 0.15 16.37 0.34C16.37 0.53 16.53 0.69 16.72 0.69L16.94 0.69L16.94 1.28C16.94 1.57 17.07 1.82 17.27 2C17 2.18 16.77 2.41 16.59 2.68L15.78 3.89L15.09 4.61C14.96 4.75 14.9 4.94 14.92 5.13C14.94 5.31 15.04 5.48 15.2 5.59L15.82 6L14.49 7.26C14.42 7.33 14.38 7.41 14.38 7.51C14.38 7.6 14.41 7.68 14.48 7.75C14.54 7.82 14.62 7.85 14.71 7.86C14.8 7.86 14.89 7.83 14.96 7.77L16.4 6.4L18.66 7.92L16.18 14.24L12.15 10.42L13.89 8.78C13.92 8.75 13.95 8.71 13.97 8.67C13.99 8.63 14 8.58 14 8.54C14 8.49 13.99 8.45 13.98 8.4C13.96 8.36 13.94 8.32 13.91 8.29C13.87 8.26 13.84 8.23 13.79 8.21C13.75 8.19 13.71 8.18 13.66 8.18C13.62 8.18 13.57 8.19 13.53 8.2C13.49 8.22 13.45 8.25 13.41 8.28L11.65 9.95L7.48 6L8.1 5.59C8.26 5.48 8.36 5.31 8.38 5.13C8.4 4.94 8.34 4.75 8.21 4.61L7.52 3.89L6.71 2.68C6.53 2.41 6.3 2.18 6.03 2C6.23 1.82 6.36 1.57 6.36 1.28L6.36 0.69L6.58 0.69C6.67 0.69 6.76 0.65 6.83 0.58C6.89 0.52 6.93 0.43 6.93 0.34C6.93 0.25 6.89 0.16 6.83 0.1C6.76 0.03 6.67 0 6.58 0L0.41 0C0.32 0 0.23 0.03 0.16 0.1C0.1 0.16 0.07 0.25 0.07 0.34C0.07 0.43 0.1 0.52 0.16 0.58C0.23 0.65 0.32 0.69 0.41 0.69L0.63 0.69L0.63 1.28C0.63 1.81 1.06 2.24 1.58 2.24L2.75 2.24L2.09 2.68C1.66 2.97 1.33 3.39 1.13 3.87C1.12 3.92 1.11 3.96 1.11 4.01C1.11 4.05 1.12 4.1 1.14 4.14C1.16 4.18 1.18 4.22 1.21 4.25C1.25 4.28 1.29 4.3 1.33 4.32C1.37 4.34 1.41 4.35 1.46 4.35C1.5 4.34 1.55 4.33 1.59 4.32C1.63 4.3 1.67 4.27 1.7 4.24C1.73 4.21 1.76 4.17 1.77 4.13C1.91 3.77 2.16 3.46 2.48 3.25L3.51 2.55C3.93 2.27 4.44 2.17 4.93 2.27C5.43 2.37 5.85 2.65 6.14 3.07L6.75 3.98L2.58 6.78L1.97 5.87C1.86 5.72 1.78 5.55 1.73 5.37C1.7 5.29 1.64 5.22 1.56 5.17C1.48 5.13 1.38 5.12 1.3 5.15C1.21 5.18 1.14 5.24 1.09 5.32C1.05 5.4 1.04 5.49 1.07 5.58C1.14 5.82 1.25 6.05 1.39 6.26L2.21 7.47L2.62 8.38C2.65 8.46 2.71 8.54 2.78 8.6C2.85 8.66 2.93 8.7 3.02 8.73C3.11 8.75 3.21 8.76 3.3 8.75C3.39 8.73 3.48 8.7 3.56 8.64L4.05 8.31L6.58 14.75L0.1 20.88C0.04 20.95 0 21.03 0 21.12C-0.01 21.22 0.03 21.3 0.09 21.37C0.15 21.44 0.24 21.48 0.33 21.48C0.42 21.48 0.51 21.45 0.58 21.39L6.85 15.44L7.48 17.05C7.51 17.11 7.55 17.17 7.61 17.2C7.67 17.24 7.74 17.26 7.8 17.26C7.86 17.26 7.92 17.25 7.97 17.22C8.01 17.2 8.06 17.16 8.09 17.11C8.12 17.07 8.14 17.01 8.15 16.96C8.15 16.9 8.15 16.84 8.13 16.79L7.39 14.93L11.65 10.9L15.91 14.93L14.24 19.17C14.21 19.25 14.21 19.35 14.25 19.43C14.28 19.52 14.35 19.58 14.43 19.61C14.52 19.65 14.61 19.65 14.7 19.61C14.78 19.57 14.85 19.51 14.88 19.42L16.45 15.44L22.72 21.39C22.79 21.45 22.87 21.48 22.96 21.48C23.01 21.48 23.05 21.47 23.1 21.45C23.14 21.43 23.18 21.41 23.21 21.37C23.24 21.34 23.27 21.3 23.28 21.26C23.3 21.22 23.31 21.17 23.31 21.13C23.3 21.08 23.29 21.04 23.27 20.99C23.26 20.95 23.23 20.91 23.2 20.88ZM21.98 0.69L21.98 1.28C21.98 1.35 21.95 1.42 21.9 1.47C21.85 1.52 21.79 1.54 21.72 1.54L17.89 1.54C17.83 1.54 17.76 1.52 17.71 1.47C17.66 1.42 17.63 1.35 17.63 1.28L17.63 0.69L21.98 0.69ZM17.16 3.07C17.75 2.2 18.92 1.97 19.78 2.55L20.82 3.25C21.68 3.83 21.91 5.01 21.33 5.87L20.72 6.78L16.55 3.98L17.16 3.07ZM16.13 4.53L20.37 7.38L20.08 8.04L15.63 5.05L16.13 4.53ZM1.32 1.28L1.32 0.69L5.66 0.69L5.66 1.28C5.66 1.35 5.64 1.42 5.59 1.47C5.54 1.52 5.47 1.54 5.41 1.54L1.58 1.54C1.51 1.54 1.45 1.52 1.4 1.47C1.35 1.42 1.32 1.35 1.32 1.28ZM3.22 8.04L2.92 7.38L7.17 4.53L7.67 5.05L3.22 8.04ZM7.12 14.24L4.63 7.92L6.9 6.4L11.15 10.42L7.12 14.24Z" fill="#BBBBBB" fill-opacity="1.000000" fill-rule="nonzero"/>
	<path id="Vector" d="M9.81 21.07C9.77 20.98 9.71 20.91 9.62 20.88C9.54 20.84 9.45 20.84 9.36 20.87C9.28 20.91 9.21 20.97 9.17 21.06C9.13 21.14 9.13 21.23 9.16 21.32L9.93 23.26C9.96 23.33 10 23.38 10.06 23.42C10.11 23.46 10.18 23.48 10.25 23.48C10.31 23.48 10.36 23.47 10.41 23.44C10.46 23.42 10.5 23.38 10.54 23.33C10.57 23.28 10.59 23.23 10.59 23.17C10.6 23.12 10.59 23.06 10.57 23.01L9.81 21.07ZM21.13 13.03C20.92 12.91 20.75 12.75 20.62 12.54C20.51 12.38 20.32 12.28 20.12 12.29C19.92 12.31 19.74 12.42 19.65 12.6C19.55 12.78 19.39 12.93 19.17 13.04C18.99 13.13 18.87 13.31 18.86 13.51C18.85 13.72 18.95 13.91 19.12 14.02C19.32 14.15 19.49 14.32 19.62 14.53C19.67 14.61 19.74 14.68 19.82 14.73C19.91 14.77 20 14.8 20.1 14.8L20.1 14.8C20.3 14.8 20.48 14.7 20.58 14.53C20.72 14.32 20.9 14.14 21.13 14C21.21 13.95 21.28 13.88 21.32 13.8C21.37 13.71 21.4 13.62 21.4 13.52C21.4 13.42 21.37 13.33 21.33 13.24C21.28 13.16 21.21 13.09 21.13 13.03ZM20.1 14.01C19.97 13.84 19.83 13.69 19.66 13.56C19.86 13.43 20.03 13.27 20.16 13.08C20.29 13.25 20.44 13.39 20.61 13.52C20.41 13.66 20.24 13.83 20.1 14.01ZM9.68 19.57C9.76 19.51 9.83 19.44 9.88 19.35C9.93 19.26 9.96 19.16 9.96 19.06C9.96 18.86 9.85 18.67 9.68 18.56C9.45 18.41 9.25 18.22 9.1 18C8.99 17.83 8.79 17.73 8.58 17.74C8.37 17.75 8.19 17.87 8.09 18.06C7.97 18.27 7.8 18.43 7.54 18.56C7.35 18.66 7.23 18.85 7.22 19.06C7.21 19.27 7.31 19.47 7.49 19.59C7.72 19.74 7.91 19.93 8.05 20.17C8.16 20.34 8.35 20.45 8.56 20.45L8.56 20.45C8.76 20.45 8.95 20.34 9.06 20.17C9.21 19.93 9.42 19.73 9.68 19.57ZM8.56 19.68C8.4 19.46 8.21 19.26 8 19.1C8.26 18.94 8.47 18.75 8.62 18.51C8.78 18.72 8.97 18.91 9.19 19.06C8.94 19.23 8.73 19.44 8.56 19.68ZM2.65 14.91C2.7 14.99 2.77 15.05 2.85 15.1C2.93 15.14 3.02 15.17 3.11 15.17L3.11 15.17C3.3 15.17 3.48 15.07 3.58 14.91C3.7 14.72 3.85 14.57 4.06 14.45C4.14 14.4 4.2 14.33 4.25 14.25C4.29 14.17 4.31 14.08 4.31 13.98C4.31 13.89 4.29 13.8 4.25 13.72C4.2 13.64 4.14 13.57 4.06 13.52C3.88 13.41 3.73 13.27 3.61 13.09C3.56 13.01 3.49 12.95 3.4 12.91C3.32 12.86 3.23 12.85 3.13 12.85C2.94 12.86 2.77 12.97 2.68 13.14C2.59 13.3 2.46 13.42 2.27 13.52C2.09 13.61 1.98 13.78 1.97 13.98C1.96 14.17 2.05 14.35 2.22 14.46C2.4 14.58 2.54 14.73 2.65 14.91ZM3.17 13.65C3.27 13.77 3.39 13.88 3.51 13.98C3.36 14.1 3.23 14.22 3.12 14.37C3.02 14.24 2.91 14.12 2.78 14.02C2.93 13.91 3.07 13.79 3.17 13.65Z" fill="#BBBBBB" fill-opacity="1.000000" fill-rule="nonzero"/>
</svg>
