<svg width="24.000000" height="24.000000" viewBox="0 0 24 24" fill="none" xmlns="http://www.w3.org/2000/svg" xmlns:xlink="http://www.w3.org/1999/xlink">
	<desc>
			Created with Pixso.
	</desc>
	<defs/>
	<path id="Vector" d="M2.42 17.7L1.52 18.61C0.81 19.31 0.67 20.38 1.11 21.22L0.19 22.14C-0.07 22.41 -0.07 22.84 0.19 23.11C0.33 23.24 0.5 23.31 0.68 23.31C0.85 23.31 1.03 23.24 1.16 23.11L2.08 22.19C2.39 22.35 2.74 22.44 3.11 22.44C3.71 22.44 4.27 22.21 4.69 21.78L5.6 20.88L2.42 17.7ZM11.08 6.6L3.39 15.55C3.08 15.91 3.1 16.45 3.44 16.79L6.51 19.86C6.85 20.2 7.39 20.22 7.75 19.91L16.7 12.22L11.08 6.6ZM10.99 13.28C10.85 13.41 10.68 13.48 10.5 13.48C10.33 13.48 10.15 13.41 10.02 13.28C9.75 13.01 9.75 12.58 10.02 12.31L11.08 11.26C11.34 10.99 11.78 10.99 12.04 11.26C12.31 11.52 12.31 11.95 12.04 12.22L10.99 13.28ZM14.08 1.37L21.93 9.22C21.98 9.27 22.01 9.32 22.05 9.38C22.86 8.36 23.31 7.1 23.31 5.78C23.31 4.23 22.7 2.78 21.61 1.69C20.52 0.6 19.07 0 17.52 0C16.2 0 14.94 0.44 13.92 1.25C13.98 1.28 14.03 1.32 14.08 1.37ZM20.97 10.19L13.11 2.33C13.07 2.29 13.03 2.24 13 2.18C12.27 3.09 11.84 4.18 11.76 5.35L17.95 11.54C19.12 11.46 20.21 11.03 21.12 10.31C21.06 10.27 21.01 10.24 20.97 10.19Z" fill="#1A32B5" fill-opacity="1.000000" fill-rule="nonzero"/>
</svg>
