<svg width="24.000000" height="24.000000" viewBox="0 0 24 24" fill="none" xmlns="http://www.w3.org/2000/svg" xmlns:xlink="http://www.w3.org/1999/xlink">
	<desc>
			Created with Pixso.
	</desc>
	<defs/>
	<path id="Vector" d="M15.81 8.97L15.81 5.85C15.81 5.76 15.77 5.68 15.71 5.62C15.65 5.55 15.57 5.52 15.48 5.52L7.82 5.52C7.73 5.52 7.65 5.55 7.59 5.62C7.53 5.68 7.49 5.76 7.49 5.85L7.49 8.97C7.49 9.05 7.53 9.14 7.59 9.2C7.65 9.26 7.73 9.3 7.82 9.3L15.48 9.3C15.57 9.3 15.65 9.26 15.71 9.2C15.77 9.14 15.81 9.05 15.81 8.97ZM8.15 6.18L11.32 6.18L11.32 8.64L8.15 8.64L8.15 6.18ZM15.15 8.64L11.98 8.64L11.98 6.18L15.15 6.18L15.15 8.64ZM4.95 4.65L1.72 4.65C1.64 4.65 1.55 4.68 1.49 4.74C1.43 4.81 1.39 4.89 1.39 4.98L1.39 8.09C1.39 8.18 1.43 8.27 1.49 8.33C1.55 8.39 1.64 8.43 1.72 8.43L4.95 8.43C5.03 8.43 5.12 8.39 5.18 8.33C5.24 8.27 5.28 8.18 5.28 8.09L5.28 4.98C5.28 4.89 5.24 4.81 5.18 4.74C5.12 4.68 5.03 4.65 4.95 4.65ZM4.62 7.76L2.05 7.76L2.05 5.31L4.62 5.31L4.62 7.76ZM23.31 17.41L23.31 3.7C23.31 3.61 23.27 3.53 23.21 3.46C23.15 3.4 23.06 3.37 22.98 3.37L17.29 3.37L17.29 0.33C17.29 0.24 17.25 0.15 17.19 0.09C17.13 0.03 17.04 0 16.96 0L6.34 0C6.26 0 6.17 0.03 6.11 0.09C6.05 0.15 6.01 0.24 6.01 0.33L6.01 3.37L0.33 3.37C0.24 3.37 0.15 3.4 0.09 3.46C0.03 3.53 0 3.61 0 3.7L0 17.41C0 17.5 0.03 17.58 0.09 17.64C0.15 17.71 0.24 17.74 0.33 17.74L3.17 17.74L3.17 18.44C3.17 18.53 3.21 18.62 3.27 18.68C3.33 18.74 3.41 18.77 3.5 18.77L4.33 18.77C4.47 19.32 4.92 19.85 5.61 20.27C6.75 20.97 8.72 21.42 10.86 20.65C11.12 20.89 11.66 21.58 11.37 22.9C11.36 22.95 11.36 23 11.37 23.05C11.38 23.1 11.4 23.14 11.43 23.18C11.46 23.22 11.5 23.25 11.55 23.27C11.59 23.29 11.64 23.31 11.69 23.31C11.77 23.3 11.84 23.28 11.9 23.23C11.96 23.19 12 23.12 12.01 23.05C12.49 20.91 11.16 20.04 11.1 20C11.06 19.97 11.01 19.95 10.96 19.95C10.91 19.94 10.85 19.95 10.81 19.97C9.03 20.66 7.38 20.41 6.31 19.9C6.9 19.17 6.96 18.43 6.9 17.91C6.86 17.61 6.78 17.36 6.71 17.17C7 17.04 7.3 16.84 7.58 16.45C7.62 16.39 7.64 16.32 7.63 16.25C7.55 14.54 8.09 12.95 9.12 11.89C10.02 10.96 11.22 10.48 12.59 10.48C12.62 10.48 12.65 10.48 12.68 10.48C14.13 10.5 15.39 11.08 16.24 12.13C17.08 13.17 17.44 14.59 17.22 16.05C16.4 16.08 13.78 15.89 13.19 12.36C13.17 12.27 13.13 12.19 13.05 12.14C12.98 12.09 12.9 12.07 12.81 12.09C12.72 12.1 12.65 12.15 12.59 12.22C12.54 12.29 12.52 12.38 12.54 12.47C12.95 14.94 14.29 15.96 15.34 16.38C15.76 16.54 16.17 16.63 16.52 16.67C16.62 16.98 16.83 17.61 17.15 18.36C16.86 18.86 16.71 19.43 16.71 20.01C16.71 21.83 18.19 23.31 20.01 23.31C21.83 23.31 23.31 21.83 23.31 20.01C23.31 19.13 22.96 18.33 22.4 17.74L22.98 17.74C23.06 17.74 23.15 17.71 23.21 17.64C23.27 17.58 23.31 17.5 23.31 17.41ZM3.17 10.79L3.17 17.08L0.66 17.08L0.66 4.03L6.01 4.03L6.01 10.45L3.5 10.45C3.41 10.45 3.33 10.49 3.27 10.55C3.21 10.61 3.17 10.7 3.17 10.79ZM4.31 18.11L3.83 18.11L3.83 11.12L8.56 11.12C5.13 13.17 5.12 16.15 5.19 17.01C5.11 17.06 5.03 17.11 4.95 17.17C4.55 17.49 4.37 17.82 4.31 18.11ZM4.94 18.45C4.92 18.17 5.06 17.92 5.35 17.7C5.59 17.52 5.83 17.44 6.08 17.37C6.25 17.77 6.5 18.67 5.73 19.56C5.25 19.22 4.96 18.81 4.94 18.45ZM6.97 16.16C6.69 16.51 6.39 16.6 6.02 16.7C5.96 16.71 5.9 16.73 5.84 16.75C5.82 16.24 5.87 15.38 6.32 14.41C6.67 13.64 7.21 12.96 7.92 12.37C7.26 13.44 6.92 14.76 6.97 16.16ZM12.59 9.82C11.71 9.82 10.88 10 10.15 10.35L10.15 10.34C10.06 10.38 9.97 10.42 9.88 10.45L6.67 10.45L6.67 0.66L16.63 0.66L16.63 10.45L15.23 10.45C14.48 10.05 13.62 9.83 12.69 9.82C12.66 9.82 12.63 9.82 12.59 9.82ZM17.23 16.71C17.41 16.7 17.53 16.69 17.54 16.69C17.61 16.68 17.67 16.65 17.72 16.6C17.77 16.55 17.81 16.49 17.82 16.42C18.16 14.69 17.77 12.97 16.75 11.71C16.58 11.5 16.38 11.3 16.18 11.12L19.47 11.12L19.47 16.75C18.74 16.87 18.1 17.23 17.61 17.74C17.47 17.4 17.35 17.06 17.23 16.71ZM20.01 22.64C18.55 22.64 17.37 21.46 17.37 20.01C17.37 18.55 18.55 17.37 20.01 17.37C21.46 17.37 22.64 18.55 22.64 20.01C22.64 21.46 21.46 22.64 20.01 22.64ZM22.64 17.08L21.53 17.08C21.09 16.85 20.62 16.73 20.13 16.71L20.13 10.79C20.13 10.7 20.09 10.61 20.03 10.55C19.97 10.49 19.89 10.45 19.8 10.45L17.29 10.45L17.29 4.03L22.64 4.03L22.64 17.08ZM18.35 8.43L21.58 8.43C21.66 8.43 21.75 8.39 21.81 8.33C21.87 8.27 21.91 8.18 21.91 8.09L21.91 4.98C21.91 4.89 21.87 4.81 21.81 4.74C21.75 4.68 21.66 4.65 21.58 4.65L18.35 4.65C18.27 4.65 18.18 4.68 18.12 4.74C18.06 4.81 18.02 4.89 18.02 4.98L18.02 8.09C18.02 8.18 18.06 8.27 18.12 8.33C18.18 8.39 18.27 8.43 18.35 8.43ZM18.68 5.31L21.25 5.31L21.25 7.76L18.68 7.76L18.68 5.31ZM7.82 4.03L15.48 4.03C15.57 4.03 15.65 3.99 15.71 3.93C15.77 3.87 15.81 3.78 15.81 3.7L15.81 1.9C15.81 1.81 15.77 1.73 15.71 1.67C15.65 1.61 15.57 1.57 15.48 1.57L7.82 1.57C7.73 1.57 7.65 1.61 7.59 1.67C7.53 1.73 7.49 1.81 7.49 1.9L7.49 3.7C7.49 3.78 7.53 3.87 7.59 3.93C7.65 3.99 7.73 4.03 7.82 4.03ZM8.15 2.23L15.15 2.23L15.15 3.37L8.15 3.37L8.15 2.23ZM8.25 14.99C8.25 15.67 8.68 16.21 9.22 16.21C9.76 16.21 10.19 15.67 10.19 14.99C10.19 14.31 9.76 13.78 9.22 13.78C8.68 13.78 8.25 14.31 8.25 14.99ZM9.53 14.99C9.53 15.31 9.36 15.55 9.22 15.55C9.08 15.55 8.91 15.31 8.91 14.99C8.91 14.68 9.08 14.44 9.22 14.44C9.36 14.44 9.53 14.68 9.53 14.99ZM11.87 13.78C11.33 13.78 10.9 14.31 10.9 14.99C10.9 15.67 11.33 16.21 11.87 16.21C12.41 16.21 12.84 15.67 12.84 14.99C12.84 14.31 12.41 13.78 11.87 13.78ZM11.87 15.55C11.73 15.55 11.56 15.31 11.56 14.99C11.56 14.68 11.73 14.44 11.87 14.44C12.01 14.44 12.18 14.68 12.18 14.99C12.18 15.31 12.01 15.55 11.87 15.55ZM22.07 18.79C22.09 18.83 22.11 18.87 22.12 18.91C22.13 18.95 22.13 18.99 22.13 19.04C22.12 19.08 22.11 19.12 22.08 19.16C22.06 19.2 22.03 19.23 22 19.25L19.41 21.17C19.38 21.2 19.33 21.22 19.29 21.23C19.25 21.24 19.21 21.24 19.16 21.23C19.12 21.23 19.08 21.21 19.04 21.19C19 21.16 18.97 21.13 18.94 21.1L17.94 19.67C17.89 19.6 17.87 19.51 17.89 19.42C17.9 19.34 17.95 19.26 18.02 19.21C18.09 19.16 18.18 19.14 18.27 19.16C18.35 19.17 18.43 19.22 18.48 19.29L19.29 20.44L21.6 18.72C21.67 18.67 21.76 18.65 21.85 18.66C21.94 18.68 22.01 18.72 22.07 18.79Z" fill="#BBBBBB" fill-opacity="1.000000" fill-rule="nonzero"/>
</svg>
