<svg width="24.000000" height="23.000000" viewBox="0 0 24 23" fill="none" xmlns="http://www.w3.org/2000/svg" xmlns:xlink="http://www.w3.org/1999/xlink">
	<desc>
			Created with Pixso.
	</desc>
	<defs/>
	<path id="Vector" d="M17.11 14C16.89 14 16.68 14.18 16.68 14.43C16.68 14.65 16.86 14.87 17.11 14.87C17.37 14.87 17.55 14.69 17.55 14.43C17.51 14.18 17.33 14 17.11 14ZM17.88 16.65C17.66 16.65 17.44 16.84 17.44 17.09C17.44 17.35 17.62 17.53 17.88 17.53C18.13 17.53 18.32 17.35 18.32 17.09C18.32 16.84 18.1 16.65 17.88 16.65ZM15.15 16.14C14.89 16.14 14.71 16.33 14.71 16.58C14.71 16.84 14.89 17.02 15.15 17.02C15.36 17.02 15.58 16.84 15.58 16.58C15.58 16.33 15.4 16.14 15.15 16.14ZM17.88 12.1C14.89 12.1 12.45 14.54 12.45 17.53C12.45 19.82 13.87 21.79 15.87 22.59C15.91 22.59 15.95 22.63 15.98 22.63C16.57 22.85 17.22 22.96 17.88 22.96C20.86 22.96 23.3 20.52 23.3 17.53C23.3 14.51 20.86 12.1 17.88 12.1ZM17.11 13.27C17.77 13.27 18.28 13.81 18.28 14.43C18.28 15.09 17.73 15.6 17.11 15.6C16.49 15.6 15.95 15.09 15.95 14.43C15.91 13.78 16.46 13.27 17.11 13.27ZM15.15 17.75C14.49 17.75 13.98 17.2 13.98 16.58C13.98 15.93 14.53 15.42 15.15 15.42C15.8 15.42 16.31 15.96 16.31 16.58C16.35 17.24 15.8 17.75 15.15 17.75ZM17.88 18.26C17.22 18.26 16.71 17.71 16.71 17.09C16.71 16.47 17.22 15.93 17.88 15.93C18.53 15.93 19.04 16.47 19.04 17.09C19.04 17.71 18.53 18.26 17.88 18.26ZM17.11 14.87C17.37 14.87 17.55 14.69 17.55 14.43C17.55 14.18 17.37 14 17.11 14C16.89 14 16.68 14.18 16.68 14.43C16.68 14.65 16.86 14.87 17.11 14.87ZM11.69 17.53C11.69 15.23 12.96 13.19 14.85 12.14L14.42 11.05C14.13 10.35 13.76 9.73 13.33 9.22C13.18 9.04 13.03 8.9 12.92 8.68C12.49 7.99 12.27 7.18 12.27 6.38C12.27 5.91 12.34 5.44 12.49 5C12.6 4.63 12.78 4.27 13 3.94C13.29 3.54 13.43 3.03 13.43 2.52C13.43 1.79 13.14 1.14 12.6 0.63C12.05 0.15 11.36 -0.06 10.63 0.01C9.57 0.12 8.66 0.96 8.44 2.01C8.3 2.7 8.44 3.4 8.84 3.98C9.06 4.27 9.25 4.63 9.35 5C9.5 5.44 9.57 5.87 9.57 6.38C9.57 7.18 9.35 7.99 8.88 8.68C8.77 8.86 8.63 9.04 8.48 9.22C7.24 10.68 6.51 13.09 6.51 15.67C6.51 16.91 6.7 19.86 6.99 20.92C7.28 21.86 8.19 22.56 9.21 22.56L14.31 22.56C12.74 21.46 11.69 19.61 11.69 17.53ZM10.16 4.74L11.65 4.74C11.87 4.74 12.01 4.93 12.01 5.11C12.01 5.33 11.83 5.47 11.65 5.47L10.16 5.47C9.94 5.47 9.79 5.29 9.79 5.11C9.79 4.93 9.94 4.74 10.16 4.74ZM9.46 8.5C9.46 8.28 9.65 8.13 9.83 8.13L11.94 8.13C12.16 8.13 12.3 8.31 12.3 8.5C12.3 8.71 12.12 8.86 11.94 8.86L9.83 8.86C9.65 8.86 9.46 8.71 9.46 8.5ZM6.29 21.14C5.97 20.01 5.79 16.95 5.79 15.67C5.79 13.12 6.48 10.68 7.68 9.08L6.66 8.57C6.62 8.53 6.59 8.53 6.55 8.5C5.89 8.02 5.42 7.37 5.13 6.6C4.95 6.16 4.87 5.69 4.84 5.22C4.8 4.82 4.87 4.45 4.95 4.05C5.06 3.54 5.02 3.03 4.84 2.59C4.58 1.94 4.07 1.39 3.38 1.14C2.76 0.85 2.03 0.88 1.38 1.21C0.39 1.72 -0.15 2.78 0.03 3.83C0.14 4.53 0.54 5.14 1.12 5.51C1.45 5.73 1.7 5.98 1.96 6.27C2.25 6.6 2.47 7.04 2.65 7.48C2.94 8.24 3.02 9.08 2.83 9.88C2.8 10.13 2.73 10.35 2.65 10.54C2 12.36 2.14 14.87 3.05 17.31C3.56 18.66 4.73 21.24 5.38 22.05C5.71 22.48 6.29 22.74 6.88 22.7L7.39 22.66C6.84 22.3 6.48 21.79 6.29 21.14ZM2.87 6.49C2.83 6.53 2.8 6.53 2.73 6.53C2.58 6.53 2.43 6.42 2.36 6.27C2.29 6.09 2.4 5.87 2.58 5.8L3.96 5.29C4.15 5.22 4.36 5.33 4.44 5.51C4.51 5.69 4.4 5.91 4.22 5.98L2.87 6.49ZM3.78 9.73C3.75 9.73 3.71 9.77 3.64 9.77C3.49 9.77 3.34 9.7 3.27 9.52C3.2 9.33 3.31 9.11 3.49 9.04L5.46 8.31C5.64 8.24 5.86 8.35 5.93 8.53C6 8.71 5.89 8.93 5.71 9.01L3.78 9.73Z" fill="#BBBBBB" fill-opacity="1.000000" fill-rule="nonzero"/>
</svg>
