<svg width="24.000000" height="20.000000" viewBox="0 0 24 20" fill="none" xmlns="http://www.w3.org/2000/svg" xmlns:xlink="http://www.w3.org/1999/xlink">
	<desc>
			Created with Pixso.
	</desc>
	<defs/>
	<path id="Vector" d="M23.06 2.32L16.97 0.02C16.94 0.01 16.91 0 16.88 0C16.87 -0.01 16.86 0 16.85 0C16.83 -0.01 16.8 0 16.78 0C16.76 0 16.75 0 16.74 0.01C16.71 0.02 16.67 0.03 16.65 0.05C16.64 0.05 16.63 0.05 16.62 0.06C16.61 0.07 16.6 0.08 16.59 0.09C16.58 0.09 16.58 0.1 16.57 0.1L12.45 4.22C12.42 4.25 12.39 4.3 12.37 4.34C12.35 4.39 12.34 4.44 12.34 4.49L12.34 8.73L10.96 8.73L10.96 4.49C10.96 4.39 10.92 4.29 10.85 4.22L6.73 0.1C6.72 0.1 6.72 0.09 6.71 0.09C6.7 0.08 6.69 0.07 6.68 0.06C6.67 0.05 6.66 0.05 6.66 0.05C6.61 0.02 6.57 0.01 6.52 0C6.5 0 6.48 -0.01 6.45 0C6.44 0 6.43 -0.01 6.42 0C6.39 0 6.36 0.01 6.33 0.02L0.24 2.32C0.17 2.35 0.1 2.4 0.06 2.46C0.02 2.52 0 2.6 0 2.67L0 16.34C0 16.44 0.03 16.54 0.1 16.61C0.17 16.68 0.27 16.72 0.37 16.72L5.54 16.72L5.54 17.88C5.54 18.25 5.69 18.6 5.94 18.85C6.2 19.11 6.55 19.26 6.92 19.26L16.38 19.26C16.75 19.26 17.1 19.11 17.36 18.85C17.61 18.6 17.76 18.25 17.76 17.88L17.76 16.72L22.93 16.72C23.03 16.72 23.12 16.68 23.19 16.61C23.26 16.54 23.31 16.44 23.31 16.34L23.31 2.67C23.31 2.6 23.28 2.52 23.24 2.46C23.19 2.4 23.13 2.35 23.06 2.32ZM13.1 4.64L16.46 1.28L16.46 8.73L13.1 8.73L13.1 4.64ZM10.2 8.73L6.84 8.73L6.84 1.28L10.2 4.64L10.2 8.73ZM0.75 15.96L0.75 2.93L6.09 0.91L6.09 9.01C5.92 9.14 5.78 9.3 5.68 9.49C5.59 9.68 5.54 9.89 5.54 10.11L5.54 15.96L0.75 15.96ZM17.01 17.88C17.01 18.05 16.94 18.21 16.83 18.32C16.71 18.44 16.55 18.51 16.38 18.51L6.92 18.51C6.75 18.51 6.59 18.44 6.48 18.32C6.36 18.21 6.29 18.05 6.29 17.88L6.29 10.11C6.29 9.94 6.36 9.78 6.48 9.67C6.59 9.55 6.75 9.48 6.92 9.48L16.38 9.48C16.55 9.48 16.71 9.55 16.83 9.67C16.94 9.78 17.01 9.94 17.01 10.11L17.01 17.88ZM22.55 15.96L17.76 15.96L17.76 10.11C17.76 9.89 17.71 9.68 17.61 9.49C17.52 9.3 17.38 9.14 17.21 9.01L17.21 0.91L22.55 2.93L22.55 15.96Z" fill="#1A32B5" fill-opacity="1.000000" fill-rule="nonzero"/>
	<path id="Vector" d="M19.85 12.01C19.95 12.01 20.04 11.97 20.11 11.9C20.18 11.83 20.22 11.74 20.22 11.64C20.22 11.54 20.18 11.44 20.11 11.37C20.04 11.3 19.95 11.26 19.85 11.26C19.1 11.26 18.52 12.04 18.52 13.04C18.52 13.14 18.56 13.23 18.63 13.3C18.7 13.37 18.8 13.41 18.9 13.41C19 13.41 19.09 13.37 19.16 13.3C19.23 13.23 19.27 13.14 19.27 13.04C19.27 12.45 19.58 12.01 19.85 12.01Z" fill="#1A32B5" fill-opacity="1.000000" fill-rule="nonzero"/>
	<path id="Vector" d="M20.67 12.01C19.93 12.01 19.34 12.79 19.34 13.79C19.34 14.78 19.93 15.56 20.67 15.56C21.41 15.56 22 14.78 22 13.79C22 12.79 21.41 12.01 20.67 12.01ZM20.67 14.81C20.4 14.81 20.1 14.37 20.1 13.79C20.1 13.2 20.4 12.76 20.67 12.76C20.94 12.76 21.25 13.2 21.25 13.79C21.25 14.37 20.94 14.81 20.67 14.81L20.67 14.81ZM19.47 7.82C19.64 7.82 19.81 7.8 19.97 7.74C20.12 7.79 20.29 7.82 20.46 7.82C21.55 7.82 22.4 6.65 22.4 5.14C22.4 3.64 21.55 2.46 20.46 2.46C20.29 2.46 20.12 2.49 19.97 2.55C19.81 2.49 19.64 2.46 19.47 2.46C18.38 2.46 17.53 3.64 17.53 5.14C17.53 6.65 18.38 7.82 19.47 7.82ZM21.65 5.14C21.65 6.19 21.1 7.07 20.46 7.07C19.82 7.07 19.27 6.19 19.27 5.14C19.27 4.1 19.82 3.21 20.46 3.21C21.1 3.21 21.65 4.1 21.65 5.14ZM18.98 3.4C18.67 3.93 18.51 4.53 18.52 5.14C18.51 5.76 18.67 6.36 18.98 6.89C18.57 6.58 18.28 5.9 18.28 5.14C18.28 4.38 18.57 3.71 18.98 3.4L18.98 3.4ZM3.45 11.26C3.35 11.26 3.26 11.3 3.19 11.37C3.12 11.44 3.08 11.54 3.08 11.64C3.08 11.74 3.12 11.83 3.19 11.9C3.26 11.97 3.35 12.01 3.45 12.01C3.72 12.01 4.03 12.45 4.03 13.04C4.03 13.14 4.07 13.23 4.14 13.3C4.21 13.37 4.3 13.41 4.4 13.41C4.5 13.41 4.6 13.37 4.67 13.3C4.74 13.23 4.78 13.14 4.78 13.04C4.78 12.04 4.2 11.26 3.45 11.26Z" fill="#1A32B5" fill-opacity="1.000000" fill-rule="nonzero"/>
	<path id="Vector" d="M2.63 12.01C1.89 12.01 1.31 12.79 1.31 13.79C1.31 14.78 1.89 15.56 2.63 15.56C3.37 15.56 3.96 14.78 3.96 13.79C3.96 12.79 3.37 12.01 2.63 12.01ZM2.63 14.81C2.36 14.81 2.06 14.37 2.06 13.79C2.06 13.2 2.36 12.76 2.63 12.76C2.9 12.76 3.2 13.2 3.2 13.79C3.2 14.37 2.9 14.81 2.63 14.81L2.63 14.81ZM3.83 2.46C3.66 2.46 3.49 2.49 3.33 2.55C3.18 2.49 3.01 2.46 2.84 2.46C1.75 2.46 0.9 3.64 0.9 5.14C0.9 6.65 1.75 7.82 2.84 7.82C3.01 7.82 3.18 7.79 3.33 7.74C3.49 7.8 3.66 7.82 3.83 7.82C4.92 7.82 5.77 6.65 5.77 5.14C5.77 3.64 4.92 2.46 3.83 2.46L3.83 2.46ZM1.65 5.14C1.65 4.1 2.2 3.21 2.84 3.21C3.49 3.21 4.03 4.1 4.03 5.14C4.03 6.19 3.49 7.07 2.84 7.07C2.2 7.07 1.65 6.19 1.65 5.14ZM4.33 6.89C4.63 6.36 4.79 5.76 4.78 5.14C4.79 4.53 4.63 3.93 4.33 3.4C4.73 3.71 5.02 4.38 5.02 5.14C5.02 5.9 4.73 6.58 4.33 6.89ZM15.6 15.12L15.41 15.12L15.41 11.36C15.41 11.26 15.37 11.17 15.3 11.1C15.23 11.03 15.13 10.99 15.03 10.99C14.93 10.99 14.84 11.03 14.77 11.1C14.7 11.17 14.66 11.26 14.66 11.36L14.66 15.12L14.47 15.12C14.27 15.12 14.08 15.2 13.94 15.34C13.8 15.48 13.72 15.67 13.72 15.87L13.72 16.44C13.72 16.64 13.8 16.83 13.94 16.97C14.08 17.11 14.27 17.19 14.47 17.19L15.6 17.19C15.8 17.19 15.99 17.11 16.13 16.97C16.27 16.83 16.35 16.64 16.35 16.44L16.35 15.87C16.35 15.67 16.27 15.48 16.13 15.34C15.99 15.2 15.8 15.12 15.6 15.12ZM15.6 16.44L14.47 16.44L14.47 15.87L15.02 15.87C15.02 15.87 15.03 15.87 15.03 15.87C15.04 15.87 15.05 15.87 15.05 15.87L15.6 15.87L15.6 16.44ZM8.83 15.12L8.64 15.12L8.64 11.36C8.64 11.26 8.6 11.17 8.53 11.1C8.46 11.03 8.37 10.99 8.27 10.99C8.17 10.99 8.07 11.03 8 11.1C7.93 11.17 7.89 11.26 7.89 11.36L7.89 15.12L7.7 15.12C7.5 15.12 7.31 15.2 7.17 15.34C7.03 15.48 6.95 15.67 6.95 15.87L6.95 16.44C6.95 16.64 7.03 16.83 7.17 16.97C7.31 17.11 7.5 17.19 7.7 17.19L8.83 17.19C9.03 17.19 9.22 17.11 9.36 16.97C9.5 16.83 9.58 16.64 9.58 16.44L9.58 15.87C9.58 15.67 9.5 15.48 9.36 15.34C9.22 15.2 9.03 15.12 8.83 15.12ZM8.83 16.44L7.7 16.44L7.7 15.87L8.25 15.87C8.26 15.87 8.26 15.87 8.27 15.87C8.27 15.87 8.28 15.87 8.28 15.87L8.83 15.87L8.83 16.44ZM12.22 15.12L12.03 15.12L12.03 11.36C12.03 11.26 11.99 11.17 11.92 11.1C11.85 11.03 11.75 10.99 11.65 10.99C11.55 10.99 11.46 11.03 11.39 11.1C11.32 11.17 11.27 11.26 11.27 11.36L11.27 15.12L11.08 15.12C10.89 15.12 10.69 15.2 10.55 15.34C10.41 15.48 10.33 15.67 10.33 15.87L10.33 16.44C10.33 16.64 10.41 16.83 10.55 16.97C10.69 17.11 10.89 17.19 11.08 17.19L12.22 17.19C12.42 17.19 12.61 17.11 12.75 16.97C12.89 16.83 12.97 16.64 12.97 16.44L12.97 15.87C12.97 15.67 12.89 15.48 12.75 15.34C12.61 15.2 12.42 15.12 12.22 15.12ZM12.21 16.44L11.09 16.44L11.08 15.87L11.64 15.87C11.64 15.87 11.65 15.87 11.65 15.87C11.66 15.87 11.66 15.87 11.67 15.87L12.21 15.87L12.21 16.44Z" fill="#1A32B5" fill-opacity="1.000000" fill-rule="nonzero"/>
</svg>
